<svg xmlns="http://www.w3.org/2000/svg" width="65.937" height="75.937" viewBox="0 0 65.937 75.937">
  <g id="customer-service-svgrepo-com" transform="translate(-27.297)">
    <g id="Group_3368" data-name="Group 3368" transform="translate(27.297)">
      <g id="Group_3367" data-name="Group 3367" transform="translate(0)">
        <path id="Path_2563" data-name="Path 2563" d="M87.794,254.127l-15.549-6.2L68.6,244.86a2.423,2.423,0,0,0-3.274.134l-5.063,5.033-5.077-5.035a2.425,2.425,0,0,0-3.272-.132l-3.641,3.068-15.549,6.2c-5.006,1.994-5,19.725-5.432,21.353H93.234C92.805,273.857,92.8,256.119,87.794,254.127Z" transform="translate(-27.297 -199.544)" fill="#9bc757"/>
        <path id="Path_2564" data-name="Path 2564" d="M133.02,16.057C131.94,7.04,123.588,0,113.476,0S95.012,7.04,93.932,16.057a3.227,3.227,0,0,0-1.493,2.722V26.1a3.232,3.232,0,0,0,3.232,3.232l2.92-.007c1.8,9.424,8.2,14.786,14.885,14.786s10.562-3.176,13.136-9.028a15.839,15.839,0,0,1-8.816,3.243,2.043,2.043,0,0,1-1.7.907h-1.866a2.045,2.045,0,1,1,0-4.091H116.1a2.04,2.04,0,0,1,1.622.8,12.807,12.807,0,0,0,10.648-6.61h2.915a3.232,3.232,0,0,0,3.232-3.232V18.779A3.229,3.229,0,0,0,133.02,16.057Zm-4.77.33c-1.906-6.017-7.413-9.595-14.774-9.595S100.6,10.368,98.7,16.382a3.225,3.225,0,0,0-1.018-.623c1.22-6.847,7.839-12.1,15.8-12.1s14.578,5.249,15.8,12.1A3.226,3.226,0,0,0,128.251,16.387Z" transform="translate(-80.508)" fill="#9bc757"/>
      </g>
    </g>
  </g>
</svg>
