<svg xmlns="http://www.w3.org/2000/svg" width="72.545" height="70.999" viewBox="0 0 72.545 70.999">
  <g id="shield-svgrepo-com" transform="translate(0 -4.897)">
    <g id="Group_3366" data-name="Group 3366" transform="translate(0 4.897)">
      <path id="Path_2562" data-name="Path 2562" d="M71.664,15.583a2.371,2.371,0,0,0-1.985-.473,29.714,29.714,0,0,1-5.584.46A38.805,38.805,0,0,1,37.85,5.5a2.366,2.366,0,0,0-3.156,0A38.807,38.807,0,0,1,8.451,15.57a29.712,29.712,0,0,1-5.579-.459A2.366,2.366,0,0,0,0,17.422c0,22.6,6.987,36.513,12.848,44.208C20.86,72.149,30.2,75.9,36.272,75.9S51.684,72.149,59.7,61.63c5.861-7.7,12.848-21.612,12.848-44.208A2.366,2.366,0,0,0,71.664,15.583ZM55.525,33.857,34.368,55.013a2.365,2.365,0,0,1-3.345,0L18.912,42.9a2.366,2.366,0,0,1,3.345-3.345L32.7,50,52.18,30.512a2.365,2.365,0,1,1,3.345,3.345Z" transform="translate(0 -4.897)" fill="#9bc757"/>
    </g>
  </g>
</svg>
