<svg xmlns="http://www.w3.org/2000/svg" width="87.131" height="79.629" viewBox="0 0 87.131 79.629">
  <g id="home-insurance-symbol-of-a-house-on-hands-svgrepo-com" transform="translate(0.001 -5.384)">
    <g id="Group_3365" data-name="Group 3365" transform="translate(-0.001 5.384)">
      <path id="Path_2559" data-name="Path 2559" d="M32.656,71.688c-.38-.3-3.4-2.578-11.771-3.134a3.148,3.148,0,0,1-1.334-.639,6.767,6.767,0,0,1-1.456-1.178c-.641-.766-1.365-1.409-1.973-2.259-4.071-5.675-8.06-6.814-8.657-7.039-.794-.383-3.837.088-2.375,2.118.093.015,4.655,6.424,4.951,6.936A10.626,10.626,0,0,0,11.714,68.4c.509.58,1.072,1.113,1.592,1.683A27.353,27.353,0,0,1,9.689,67.6a7.752,7.752,0,0,1-.709-1.228c-.287-.464-.592-.916-.9-1.364-.39-.558-.783-1.116-1.2-1.655-.528-.688-1.077-1.361-1.621-2.037a15.063,15.063,0,0,1-1-1.267c-1.38-2.18.2-3.483,1.7-3.648-.072-.251-.762-6.842-.883-7.949-.344-3.178-.684-5.531-2.506-6.172a.949.949,0,0,0-1.151.259c-.414.435-.661,2.743-.78,4.2a108.527,108.527,0,0,0-.6,11.483c.1,1.959,6.189,15.438,7.938,17.522s15.427,9.967,15.427,9.967c.457.38,2.99,2.331,2.99,4.888v5.552l14.748.017.013-5.094c.034-.942.194-1.878.307-2.816a10.588,10.588,0,0,0-.086-3.881C39.653,76.737,33.346,72.221,32.656,71.688Z" transform="translate(0.001 -16.544)" fill="#9bc757"/>
      <path id="Path_2560" data-name="Path 2560" d="M106.3,46.742c-.12-1.46-.366-3.767-.78-4.2a.95.95,0,0,0-1.152-.259c-1.819.641-2.162,2.995-2.505,6.172-.121,1.107-.81,7.7-.884,7.949,1.5.164,3.076,1.468,1.7,3.648a14.558,14.558,0,0,1-1,1.267c-.544.676-1.093,1.349-1.622,2.037-.415.54-.806,1.1-1.2,1.655-.311.448-.618.9-.9,1.364a7.554,7.554,0,0,1-.71,1.228,27.261,27.261,0,0,1-3.617,2.484c.52-.57,1.084-1.1,1.592-1.683A10.623,10.623,0,0,0,96.9,66.492c.3-.511,4.86-6.921,4.951-6.936,1.463-2.029-1.582-2.5-2.375-2.118-.6.224-4.585,1.364-8.657,7.04-.608.849-1.332,1.494-1.973,2.258a6.7,6.7,0,0,1-1.456,1.179,3.14,3.14,0,0,1-1.334.639c-8.373.555-11.39,2.838-11.771,3.134-.689.534-7,5.048-8.71,12.692a10.572,10.572,0,0,0-.086,3.881c.113.938.274,1.874.307,2.816l.013,5.094,14.748-.017V90.6c0-2.557,2.533-4.508,2.99-4.888,0,0,13.679-7.885,15.427-9.967s7.834-15.562,7.938-17.522A108.315,108.315,0,0,0,106.3,46.742Z" transform="translate(-19.806 -16.544)" fill="#9bc757"/>
      <path id="Path_2561" data-name="Path 2561" d="M69.688,32.99,72.127,35.4A3.634,3.634,0,0,0,77.2,35.4a3.483,3.483,0,0,0,.012-4.989L52.9,6.423a3.62,3.62,0,0,0-1.925-.978v-.01a3.6,3.6,0,0,0-.528-.051c-.014,0-.029,0-.041,0s-.028,0-.044,0a3.694,3.694,0,0,0-.529.051v.011a3.629,3.629,0,0,0-1.925.978L23.588,30.415A3.486,3.486,0,0,0,23.6,35.4a3.635,3.635,0,0,0,5.076-.006l2.44-2.406.013,20.636L50.4,53.594l19.294.033ZM56.343,49.367,56.32,37.3l-5.395-.009h-1.14l-5.346.009.017,12.069L35.9,49.356l-.013-21.081L50.4,13.958l14.51,14.316.009,21.081Z" transform="translate(-6.833 -5.384)" fill="#9bc757"/>
    </g>
  </g>
</svg>
