<svg xmlns="http://www.w3.org/2000/svg" width="63" height="77.354" viewBox="0 0 63 77.354">
  <g id="worker-svgrepo-com" transform="translate(-45)">
    <g id="Group_3370" data-name="Group 3370" transform="translate(45)">
      <g id="Group_3369" data-name="Group 3369" transform="translate(0)">
        <path id="Path_2565" data-name="Path 2565" d="M97.782,59.815a37.379,37.379,0,0,0-5.664-2.308c-.122-.065-.362-.194-.686-.372a32.323,32.323,0,0,1-5.761-3.8V49.466A19.372,19.372,0,0,0,94.89,35.638c2.745-.786,5.135-3.363,5.135-5.733,0-2.4-1.8-3.991-4.785-4.321v-1.66h5.582v-1.2c0-1.54-1.337-7.465-4.307-7.571A21.136,21.136,0,0,0,84.076,2.193V0H68.924V2.193A21.124,21.124,0,0,0,56.478,15.157c-2.966.113-4.3,6.032-4.3,7.571v1.2h5.582v1.66c-2.981.33-4.785,1.922-4.785,4.321,0,2.37,2.39,4.947,5.135,5.733a19.371,19.371,0,0,0,9.219,13.827v3.873a32.3,32.3,0,0,1-5.759,3.8c-.329.18-.571.31-.692.375a37.258,37.258,0,0,0-5.66,2.338C45.239,64.98,45.005,71.86,45,72.15v5.2h63V72.165C108,71.872,107.849,64.933,97.782,59.815ZM92.051,60a35.237,35.237,0,0,1,3.987,1.615v6.963H92.051Zm5.582-30.1c0,.977-1.057,2.307-2.435,3.042.026-.473.042-4.958.042-4.958C97.372,28.287,97.633,29.39,97.633,29.905ZM84.076,4.778a18.747,18.747,0,0,1,9.9,10.374h-9.9ZM71.316,2.392H81.684V15.152H71.316ZM68.924,4.778V15.152h-9.9A18.734,18.734,0,0,1,68.924,4.778ZM55.367,29.905c0-.515.26-1.618,2.392-1.917,0,0,.016,4.486.042,4.958C56.424,32.212,55.367,30.882,55.367,29.905Zm-.652-8.373c.364-1.718,1.326-3.778,1.875-3.987H96.41c.549.21,1.511,2.269,1.875,3.987Zm5.633,12.944a21.5,21.5,0,0,1-.2-2.976V23.924h32.7V31.5a21.519,21.519,0,0,1-.2,2.978c-.823,5.957-4,10.774-8.73,13.218a16.642,16.642,0,0,1-14.848,0C64.352,45.252,61.171,40.435,60.348,34.476ZM83.278,50.607v2.761c-.818.855-3.411,3.252-6.778,3.252-3.346,0-5.956-2.4-6.778-3.254V50.607a19.317,19.317,0,0,0,13.557,0ZM63.342,58.886a37.767,37.767,0,0,0,5.142-3.376,12.116,12.116,0,0,0,8.016,3.5,12.115,12.115,0,0,0,8.016-3.5,37.758,37.758,0,0,0,5.142,3.376v9.7H63.342Zm-6.38,2.76a35.245,35.245,0,0,1,3.987-1.636v8.573H56.962ZM52.209,74.962H47.392v-2.77c.015-.329.349-5.057,7.177-9.238v5.661a2.793,2.793,0,0,0-2.392,2.759v3.19A2.786,2.786,0,0,0,52.209,74.962Zm46.221-.4a.4.4,0,0,1-.4.4H54.968a.4.4,0,0,1-.4-.4v-3.19a.4.4,0,0,1,.4-.4H98.032a.4.4,0,0,1,.4.4Zm7.177.4h-4.817a2.785,2.785,0,0,0,.032-.4v-3.19a2.793,2.793,0,0,0-2.392-2.759v-5.7c6.929,4.2,7.169,8.994,7.177,9.272Z" transform="translate(-45)" fill="#9bc757"/>
        <path id="Path_2566" data-name="Path 2566" d="M236.2,215.076h3.19v-2.392h-1.994V207.5H235v6.38A1.2,1.2,0,0,0,236.2,215.076Z" transform="translate(-204.696 -174.405)" fill="#9bc757"/>
      </g>
    </g>
  </g>
</svg>
