<svg xmlns="http://www.w3.org/2000/svg" width="13.001" height="13.001" viewBox="0 0 13.001 13.001"><defs><style>.a{fill:#fff;}</style></defs><g transform="translate(0)"><circle class="a" cx="0.254" cy="0.254" r="0.254" transform="translate(10.132 8.73)"/><path class="a" d="M12.8,2.441A2.5,2.5,0,0,0,10.5.914h0a2.488,2.488,0,0,0-1.189.3,3.424,3.424,0,0,0-4.83-.4,3.455,3.455,0,0,0-.534.568A2.492,2.492,0,0,0,2.5.914h0A2.5,2.5,0,0,0,1.453,5.684a2.481,2.481,0,0,0,.931.226l.491,6.855A.254.254,0,0,0,3.129,13h6.988a.254.254,0,0,0,.253-.236l.188-2.623a.254.254,0,0,0-.235-.272H10.3a.255.255,0,0,0-.253.236h0l-.1,1.346H8.437l.059-.841a.254.254,0,1,0-.507-.035l-.061.876H5.307l-.061-.876a.254.254,0,1,0-.507.035l.059.841H3.291l-.4-5.574a2.676,2.676,0,0,0,.756-.257.254.254,0,0,0-.234-.451,2.084,2.084,0,0,1-.808.232L2.5,5.4A1.991,1.991,0,1,1,3.678,1.81a3.076,3.076,0,0,0-.214.466.254.254,0,1,0,.479.169,6.522,6.522,0,0,1,.3-.6,2.918,2.918,0,0,1,4.787-.167,5.742,5.742,0,0,1,.41.745.254.254,0,1,0,.478-.173,3.253,3.253,0,0,0-.305-.617,1.991,1.991,0,1,1,1,3.769h-.123a1.915,1.915,0,0,1-.966-.265.254.254,0,0,0-.251.442,2.461,2.461,0,0,0,1.081.327l-.137,1.919a.255.255,0,0,0,.235.272h.019a.255.255,0,0,0,.253-.236l.141-1.974A2.5,2.5,0,0,0,12.8,2.441ZM9.918,11.96l-.038.533H3.365l-.038-.533Z"/></g></svg>