<svg xmlns="http://www.w3.org/2000/svg" width="10.305" height="16.617" viewBox="0 0 10.305 16.617"><defs><style>.a{fill:#fff;}</style></defs><g transform="translate(-97.24)"><g transform="translate(105.305 6.312)"><path class="a" d="M346.684,194.477h-.7a.243.243,0,1,0,0,.487h.7a.243.243,0,1,0,0-.487Z" transform="translate(-345.739 -194.477)"/></g><g transform="translate(97.24)"><path class="a" d="M107.545,6.555a3.053,3.053,0,0,0-2.805-3.039V.243A.243.243,0,0,0,104.5,0h-4.208a.243.243,0,0,0-.243.243V3.516A3.053,3.053,0,0,0,97.24,6.555h0v7.013a1.648,1.648,0,0,0,1.4,1.628v1.177a.243.243,0,0,0,.243.243H105.9a.243.243,0,0,0,.243-.243V15.2a1.648,1.648,0,0,0,1.4-1.627h0ZM100.532.487h3.721v3.02h-1.091V2.347a.243.243,0,0,0-.243-.243h-1.052a.243.243,0,0,0-.243.243V3.507h-1.091Zm2.143,2.1v.916h-.565V2.591Zm2.98,13.539H99.129v-.916h6.526Zm1.4-2.805h-6.687a.243.243,0,1,0,0,.487h6.661a1.161,1.161,0,0,1-1.133.916H98.886a1.16,1.16,0,0,1-1.159-1.159V6.8h6.687a.243.243,0,1,0,0-.487H97.739a2.565,2.565,0,0,1,2.55-2.318H104.5a2.565,2.565,0,0,1,2.561,2.562Z" transform="translate(-97.24)"/></g><g transform="translate(98.292 13.325)"><g transform="translate(0)"><path class="a" d="M130.6,410.563h-.7a.243.243,0,0,0,0,.487h.7a.243.243,0,0,0,0-.487Z" transform="translate(-129.652 -410.563)"/></g></g><g transform="translate(100.74 7.714)"><g transform="translate(0)"><path class="a" d="M208.378,240.552c0-.027-.005-.05-.006-.06h0a3.6,3.6,0,0,0-1.5-2.759.243.243,0,0,0-.373.194,1.881,1.881,0,0,1-.322.943l-.124-.124a.243.243,0,0,0-.373.035,3.389,3.389,0,0,0-.567,1.491,2.986,2.986,0,0,0-.021.489,1.51,1.51,0,0,0,.018.2,1.646,1.646,0,0,0,3.278-.215C208.393,240.705,208.387,240.643,208.378,240.552Zm-1.631,1.35a1.16,1.16,0,0,1-1.15-1.013v-.009a2.715,2.715,0,0,1,.337-1.572l.1.1a.243.243,0,0,0,.172.071h0a.244.244,0,0,0,.172-.072,2.371,2.371,0,0,0,.546-1.012,3.188,3.188,0,0,1,.964,2.127h0c0,.013,0,.043.007.078s.012.122.013.143A1.16,1.16,0,0,1,206.747,241.9Z" transform="translate(-205.095 -237.695)"/></g></g></g></svg>