<svg xmlns="http://www.w3.org/2000/svg" width="62.817" height="112.109" viewBox="0 0 62.817 112.109"><defs><style>.a{fill:#4fb97a;}.b{fill:#23a859;}.c{fill:#ffc219;}.d{fill:#ffce47;}</style></defs><path class="a" d="M503.223,632.861H461.594A10.6,10.6,0,0,1,451,622.268v-36.2a38.182,38.182,0,0,1,7.842-23.193L472.5,545h19.825l13.654,17.871a38.183,38.183,0,0,1,7.842,23.193v36.2A10.579,10.579,0,0,1,503.223,632.861Z" transform="translate(-451 -520.753)"/><path class="b" d="M490.3,647.556a9.1,9.1,0,0,1-9.1-9.1V608.5a30.649,30.649,0,0,1,6.248-18.488l7.637-9.977a12.351,12.351,0,0,1,9.771-4.834h0a12.239,12.239,0,0,1,9.771,4.834l7.637,9.977a30.537,30.537,0,0,1,6.248,18.488v29.93a9.1,9.1,0,0,1-9.1,9.1H490.3Z" transform="translate(-473.435 -543.187)"/><g transform="translate(18.925)"><path class="c" d="M550.568,450.7h-6.763a5.619,5.619,0,0,0-5.605,5.605V470.4h17.973V456.305A5.619,5.619,0,0,0,550.568,450.7Z" transform="translate(-534.703 -450.7)"/><path class="d" d="M547.2,509.6H527.3a2.7,2.7,0,0,0-2.7,2.7v3.677a2.7,2.7,0,0,0,2.7,2.7h19.9a2.7,2.7,0,0,0,2.7-2.7V512.3A2.716,2.716,0,0,0,547.2,509.6Z" transform="translate(-524.6 -494.455)"/></g><path class="b" d="M548.23,545.543H526.271a1.668,1.668,0,0,1-1.671-1.671h0a1.668,1.668,0,0,1,1.671-1.671H548.23a1.668,1.668,0,0,1,1.671,1.671h0A1.668,1.668,0,0,1,548.23,545.543Z" transform="translate(-505.675 -518.673)"/></svg>