<svg xmlns="http://www.w3.org/2000/svg" width="86.821" height="94.921" viewBox="0 0 86.821 94.921"><defs><style>.a{fill:#69d2e7;}.b{fill:#4d91bb;}.c{fill:#a5e4f1;}.d{fill:#7aaccc;}</style></defs><g transform="translate(28.19)"><path class="a" d="M1268.17,1044.485a11.085,11.085,0,0,0-22.17,0Z" transform="translate(-1209.539 -1033.4)"/><path class="a" d="M1097,1150.741h51.681a6.945,6.945,0,0,0,6.95-6.95V1078.7H1097Z" transform="translate(-1097 -1067.615)"/><g transform="translate(10.767 49.161)"><path class="b" d="M1141,1234.3h47.864v6.7H1141Z" transform="translate(-1141 -1234.3)"/><path class="b" d="M1141,1280.7h47.864v6.7H1141Z" transform="translate(-1141 -1269.346)"/></g></g><path class="c" d="M992.885,1033.4a11.091,11.091,0,0,0-11.085,11.085v77.351a6.5,6.5,0,0,0,6.485,6.485h51.681a6.5,6.5,0,0,0,6.485-6.485v-77.351a11.091,11.091,0,0,1,11.085-11.085Z" transform="translate(-981.8 -1033.4)"/><g transform="translate(0 39.691)"><path class="d" d="M981.8,1195.6h64.651v9.03H981.8Z" transform="translate(-981.8 -1195.6)"/><path class="d" d="M981.8,1258.2h64.651v9.03H981.8Z" transform="translate(-981.8 -1242.881)"/></g></svg>