<svg xmlns="http://www.w3.org/2000/svg" width="124.488" height="112.109" viewBox="0 0 124.488 112.109"><defs><style>.a{fill:#69d2e7;}.b{fill:#4d91bb;}.c{fill:#a5e4f1;}.d{fill:#7aaccc;}.e{fill:#4fb97a;}.f{fill:#23a859;}.g{fill:#ffc219;}.h{fill:#ffce47;}</style></defs><g transform="translate(-2494.206 -1072.506)"><g transform="translate(2531.873 1088.679)"><g transform="translate(28.19)"><path class="a" d="M1268.17,1044.485a11.085,11.085,0,0,0-22.17,0Z" transform="translate(-1209.539 -1033.4)"/><path class="a" d="M1097,1150.741h51.681a6.945,6.945,0,0,0,6.95-6.95V1078.7H1097Z" transform="translate(-1097 -1067.615)"/><g transform="translate(10.767 49.161)"><path class="b" d="M1141,1234.3h47.864v6.7H1141Z" transform="translate(-1141 -1234.3)"/><path class="b" d="M1141,1280.7h47.864v6.7H1141Z" transform="translate(-1141 -1269.346)"/></g></g><path class="c" d="M992.885,1033.4a11.091,11.091,0,0,0-11.085,11.085v77.351a6.5,6.5,0,0,0,6.485,6.485h51.681a6.5,6.5,0,0,0,6.485-6.485v-77.351a11.091,11.091,0,0,1,11.085-11.085Z" transform="translate(-981.8 -1033.4)"/><g transform="translate(0 39.691)"><path class="d" d="M981.8,1195.6h64.651v9.03H981.8Z" transform="translate(-981.8 -1195.6)"/><path class="d" d="M981.8,1258.2h64.651v9.03H981.8Z" transform="translate(-981.8 -1242.881)"/></g></g><g transform="translate(2494.206 1072.506)"><path class="e" d="M503.223,632.861H461.594A10.6,10.6,0,0,1,451,622.268v-36.2a38.182,38.182,0,0,1,7.842-23.193L472.5,545h19.825l13.654,17.871a38.183,38.183,0,0,1,7.842,23.193v36.2A10.579,10.579,0,0,1,503.223,632.861Z" transform="translate(-451 -520.753)"/><path class="f" d="M490.3,647.556a9.1,9.1,0,0,1-9.1-9.1V608.5a30.649,30.649,0,0,1,6.248-18.488l7.637-9.977a12.351,12.351,0,0,1,9.771-4.834h0a12.239,12.239,0,0,1,9.771,4.834l7.637,9.977a30.537,30.537,0,0,1,6.248,18.488v29.93a9.1,9.1,0,0,1-9.1,9.1H490.3Z" transform="translate(-473.435 -543.187)"/><g transform="translate(18.925)"><path class="g" d="M550.568,450.7h-6.763a5.619,5.619,0,0,0-5.605,5.605V470.4h17.973V456.305A5.619,5.619,0,0,0,550.568,450.7Z" transform="translate(-534.703 -450.7)"/><path class="h" d="M547.2,509.6H527.3a2.7,2.7,0,0,0-2.7,2.7v3.677a2.7,2.7,0,0,0,2.7,2.7h19.9a2.7,2.7,0,0,0,2.7-2.7V512.3A2.716,2.716,0,0,0,547.2,509.6Z" transform="translate(-524.6 -494.455)"/></g><path class="f" d="M548.23,545.543H526.271a1.668,1.668,0,0,1-1.671-1.671h0a1.668,1.668,0,0,1,1.671-1.671H548.23a1.668,1.668,0,0,1,1.671,1.671h0A1.668,1.668,0,0,1,548.23,545.543Z" transform="translate(-505.675 -518.673)"/></g></g></svg>