<svg xmlns="http://www.w3.org/2000/svg" width="175.115" height="77.112" viewBox="0 0 175.115 77.112"><defs><style>.a{fill:#c3edf5;}.b{fill:#e1f6fa;}.c{fill:#fca566;}.d{fill:#f69652;}.e{fill:#f47c27;}.f,.k{fill:none;stroke-linecap:round;stroke-miterlimit:10;}.f{stroke:#f47c27;stroke-width:21.057px;}.g{fill:#666;}.h{fill:#4dbab4;}.i{fill:#ccc;}.j{fill:#c2e085;}.k{stroke:#666;stroke-linejoin:round;stroke-width:11.23px;}</style></defs><g transform="translate(-2040.774 -1104.572)"><g transform="translate(2060.616 1104.572)"><g transform="translate(45.881)"><path class="a" d="M1845.283,1151.542a13.842,13.842,0,1,1-13.842-13.842A13.842,13.842,0,0,1,1845.283,1151.542Z" transform="translate(-1771.084 -1126.706)"/><path class="a" d="M1689.341,1154.32a11.82,11.82,0,1,1-11.82-11.82A11.82,11.82,0,0,1,1689.341,1154.32Z" transform="translate(-1665.7 -1130.036)"/><path class="a" d="M1907.8,1158.252a8.452,8.452,0,1,1-8.452-8.452A8.452,8.452,0,0,1,1907.8,1158.252Z" transform="translate(-1821.937 -1135.101)"/><path class="a" d="M1755.906,1119.653a17.853,17.853,0,1,1-17.853-17.853,17.853,17.853,0,0,1,17.853,17.853Z" transform="translate(-1703.51 -1101.8)"/></g><g transform="translate(11.606 5.175)"><path class="b" d="M1635.783,1157.092a11.392,11.392,0,1,1-11.392-11.392A11.392,11.392,0,0,1,1635.783,1157.092Z" transform="translate(-1606.018 -1137.432)"/><path class="b" d="M1759.976,1165.938a9.738,9.738,0,1,1-9.738-9.738A9.738,9.738,0,0,1,1759.976,1165.938Z" transform="translate(-1694.473 -1144.716)"/><path class="b" d="M1604.164,1159.882a6.982,6.982,0,1,1-6.982-6.982A6.982,6.982,0,0,1,1604.164,1159.882Z" transform="translate(-1590.199 -1142.427)"/><path class="b" d="M1692.5,1133.4a14.7,14.7,0,1,1-14.7-14.7A14.7,14.7,0,0,1,1692.5,1133.4Z" transform="translate(-1640.776 -1118.7)"/></g><path class="c" d="M1679.7,1244.672h-75.428a8.733,8.733,0,0,1-8.284-5.42L1580.4,1196.9h123.143l-15.591,42.352A8.7,8.7,0,0,1,1679.7,1244.672Z" transform="translate(-1571.795 -1167.777)"/><g transform="translate(13.811 44.618)"><path class="d" d="M1597.4,1247.5l1.563,4.2H1708.6l1.563-4.2Z" transform="translate(-1597.4 -1247.5)"/><path class="d" d="M1711.828,1287.7l2.635-7.1H1608.5l2.635,7.1Z" transform="translate(-1605.101 -1270.464)"/></g><path class="e" d="M1691.359,1187.077H1567.777a5.083,5.083,0,0,1-5.277-4.839h0a5.083,5.083,0,0,1,5.277-4.838h123.582a5.083,5.083,0,0,1,5.277,4.838h0A5.063,5.063,0,0,1,1691.359,1187.077Z" transform="translate(-1559.376 -1154.249)"/><g transform="translate(0 17.853)"><path class="f" d="M1946.4,1168.644l8.544-8.544" transform="translate(-1814.56 -1160.1)"/><path class="f" d="M1560.844,1168.644l-8.543-8.544" transform="translate(-1552.3 -1160.1)"/></g></g><g transform="translate(2040.774 1140.43)"><path class="g" d="M716.178,1145H706.9v-4.6h9.278a.778.778,0,0,1,.773.773v3.056A.778.778,0,0,1,716.178,1145Z" transform="translate(-630.34 -1135.779)"/><path class="g" d="M584.969,1171.2h-7.455a3.323,3.323,0,0,0-3.314,3.313v3.093a3.323,3.323,0,0,0,3.314,3.313h7.455a3.323,3.323,0,0,0,3.313-3.313v-3.093A3.323,3.323,0,0,0,584.969,1171.2Z" transform="translate(-522.068 -1160.91)"/><path class="g" d="M355.9,1294.3h65.975v7.087H355.9Z" transform="translate(-343.953 -1261.349)"/><path class="h" d="M384.98,1115.3H363.259a34.424,34.424,0,0,0-26.25,12.168l-16.715,19.752a3.412,3.412,0,0,0,2.6,5.615H392.6a3.41,3.41,0,0,0,3.406-3.406v-23.1A11.022,11.022,0,0,0,384.98,1115.3Zm4.344,10.345a5.283,5.283,0,0,1-5.283,5.283H358.067a2.536,2.536,0,0,1-1.749-4.381h0a22.361,22.361,0,0,1,15.445-6.185h12.278a5.283,5.283,0,0,1,5.283,5.283Z" transform="translate(-314.237 -1115.3)"/><path class="i" d="M292.215,1328.63h79.321a1.214,1.214,0,0,0,1.215-1.215h0a1.214,1.214,0,0,0-1.215-1.215H292.215a1.214,1.214,0,0,0-1.215,1.215h0A1.214,1.214,0,0,0,292.215,1328.63Z" transform="translate(-291 -1287.377)"/><path class="j" d="M340.1,1239.148h72.731V1232.3H345.88Z" transform="translate(-331.062 -1210.762)"/><path class="k" d="M734.2,1152.9h14.082a8.218,8.218,0,0,1,8.21,8.21h0a8.218,8.218,0,0,1-8.21,8.21h-3.019a5.35,5.35,0,0,0-5.357,5.357h0a5.35,5.35,0,0,0,5.357,5.357h6.259" transform="translate(-652.614 -1145.978)"/></g></g></svg>