<svg xmlns="http://www.w3.org/2000/svg" width="131.596" height="157.037" viewBox="0 0 131.596 157.037"><defs><style>.a{fill:#dd6966;}.b{fill:#d2423f;}.c,.h{fill:none;stroke-linecap:round;stroke-linejoin:round;stroke-miterlimit:10;}.c{stroke:#666;stroke-width:10.56px;}.d{fill:#4dbab4;}.e{fill:#e6e6e6;}.f{fill:#666;}.g{fill:#87dbec;}.h{stroke:#fff;stroke-width:19.019px;}.i{fill:#ffce47;}.j{fill:#add65c;}.k{fill:#4fb97a;}.l{fill:#23a859;}.m{fill:#ffc219;}</style></defs><g transform="translate(-241.404 -1031.578)"><g transform="translate(247.85 1038.476)"><path class="a" d="M1620.93,552.045l-15.486-5.545a18.173,18.173,0,0,1-21.55,0l-15.486,5.545-21.28,8.836a2.492,2.492,0,0,0-1.42,3.043l3.967,12.4a2.479,2.479,0,0,0,3.314,1.533l15.419-6.4v41.162a2.472,2.472,0,0,0,2.48,2.48h47.563a2.473,2.473,0,0,0,2.48-2.48V571.431l15.419,6.4a2.487,2.487,0,0,0,3.314-1.533l3.967-12.4a2.492,2.492,0,0,0-1.42-3.043Z" transform="translate(-1545.594 -533.02)"/><path class="b" d="M1725.509,546.5a18.173,18.173,0,0,1-21.55,0l-3.359,1.195a19.919,19.919,0,0,0,28.268,0Z" transform="translate(-1665.658 -533.02)"/><path class="c" d="M1644.868,487.061a127.856,127.856,0,0,1-97.268-.361" transform="translate(-1547.148 -486.7)"/><g transform="translate(27.347 5.322)"><path class="d" d="M1671.46,526.582l-3.719-.721a1.03,1.03,0,0,1-.812-1.217l2.615-13.5a1.03,1.03,0,0,1,1.217-.812l3.719.721a1.03,1.03,0,0,1,.812,1.217l-2.615,13.5A1.03,1.03,0,0,1,1671.46,526.582Z" transform="translate(-1666.909 -510.308)"/><path class="d" d="M1826.261,526.582l3.719-.721a1.03,1.03,0,0,0,.812-1.217l-2.615-13.5a1.03,1.03,0,0,0-1.217-.812l-3.719.721a1.03,1.03,0,0,0-.812,1.217l2.615,13.5A1.03,1.03,0,0,0,1826.261,526.582Z" transform="translate(-1787.356 -510.308)"/></g></g><g transform="translate(287 1088.787)"><path class="e" d="M1049.875,562.59H980.3a8.439,8.439,0,0,1-8.2-8.649V471.449a8.439,8.439,0,0,1,8.2-8.649h69.575a8.439,8.439,0,0,1,8.2,8.649v82.492A8.439,8.439,0,0,1,1049.875,562.59Z" transform="translate(-972.1 -462.8)"/><path class="f" d="M972.1,806.5v7.874a8.439,8.439,0,0,0,8.2,8.649h69.575a8.439,8.439,0,0,0,8.2-8.649v-7.849H972.1Z" transform="translate(-972.1 -723.233)"/><g transform="translate(14.068 28.055)"><path class="f" d="M1108.221,602.56a23.96,23.96,0,1,1-23.96-23.96A23.96,23.96,0,0,1,1108.221,602.56Z" transform="translate(-1055.019 -578.6)"/><path class="f" d="M1050.662,668.737h-8.043a4.115,4.115,0,0,1-4.119-4.119h0a4.115,4.115,0,0,1,4.119-4.119h8.043a4.115,4.115,0,0,1,4.119,4.119h0A4.115,4.115,0,0,1,1050.662,668.737Z" transform="translate(-1038.5 -640.658)"/><path class="g" d="M1119.818,619.609a18.509,18.509,0,1,1-18.509-18.509A18.509,18.509,0,0,1,1119.818,619.609Z" transform="translate(-1072.068 -595.649)"/><path class="h" d="M1103.8,635.446A13.446,13.446,0,0,1,1117.246,622" transform="translate(-1087.98 -611.486)"/></g><path class="f" d="M972.1,526.2h86v5.378h-86Z" transform="translate(-972.1 -510.84)"/><path class="d" d="M1043.924,488.026h-16.111a3.515,3.515,0,0,1-3.513-3.513h0a3.515,3.515,0,0,1,3.513-3.513h16.111a3.515,3.515,0,0,1,3.513,3.513h0A3.515,3.515,0,0,1,1043.924,488.026Z" transform="translate(-1011.654 -476.591)"/><path class="a" d="M1203.544,485.422a3.222,3.222,0,1,1-3.222-3.222A3.222,3.222,0,0,1,1203.544,485.422Z" transform="translate(-1145.633 -477.5)"/><path class="i" d="M1246.744,485.422a3.222,3.222,0,1,1-3.222-3.222A3.222,3.222,0,0,1,1246.744,485.422Z" transform="translate(-1178.952 -477.5)"/><path class="j" d="M1289.944,485.422a3.222,3.222,0,1,1-3.222-3.222,3.222,3.222,0,0,1,3.222,3.222Z" transform="translate(-1212.763 -477.5)"/></g><g transform="translate(249.65 1100.5)"><path class="k" d="M492.046,614.057h-32.72A8.327,8.327,0,0,1,451,605.73V577.275a30.011,30.011,0,0,1,6.164-18.229L467.9,545h15.582l10.731,14.046a30.011,30.011,0,0,1,6.164,18.229V605.73A8.315,8.315,0,0,1,492.046,614.057Z" transform="translate(-451 -525.942)"/><path class="l" d="M488.354,632.07a7.155,7.155,0,0,1-7.154-7.154V601.372a24.09,24.09,0,0,1,4.911-14.531l6-7.841a9.707,9.707,0,0,1,7.68-3.8h0a9.62,9.62,0,0,1,7.68,3.8l6,7.841a24,24,0,0,1,4.911,14.531V624.9a7.154,7.154,0,0,1-7.154,7.154H488.354Z" transform="translate(-475.097 -550.039)"/><g transform="translate(14.874)"><path class="m" d="M547.921,450.7h-5.315a4.416,4.416,0,0,0-4.406,4.406v11.075h14.127V455.106A4.416,4.416,0,0,0,547.921,450.7Z" transform="translate(-535.451 -450.7)"/><path class="i" d="M542.364,509.6H526.722a2.122,2.122,0,0,0-2.122,2.122v2.89a2.122,2.122,0,0,0,2.122,2.122h15.642a2.122,2.122,0,0,0,2.122-2.122v-2.89A2.135,2.135,0,0,0,542.364,509.6Z" transform="translate(-524.6 -497.696)"/></g><path class="l" d="M543.173,544.827H525.914a1.311,1.311,0,0,1-1.314-1.314h0a1.311,1.311,0,0,1,1.314-1.314h17.259a1.311,1.311,0,0,1,1.314,1.314h0A1.311,1.311,0,0,1,543.173,544.827Z" transform="translate(-509.726 -523.708)"/></g></g></svg>