<svg xmlns="http://www.w3.org/2000/svg" width="8.68" height="10.46" viewBox="0 0 8.68 10.46"><defs><style>.a{fill:#fff;}</style></defs><path class="a" d="M4.32,2.946v7.509a.729.729,0,0,0,.614.726h7.393A.782.782,0,0,0,13,10.455V2.946ZM8.651,8.905A2.324,2.324,0,0,1,6.289,6.621a2.363,2.363,0,0,1,4.723,0A2.324,2.324,0,0,1,8.651,8.905ZM12.327.72H4.934a.576.576,0,0,0-.614.558V2.5H13V1.278A.631.631,0,0,0,12.327.72ZM7.213,2.055H4.765v-.89H7.213Zm4.261-.062a.5.5,0,0,1-.5-.487.5.5,0,0,1,1.006,0A.5.5,0,0,1,11.475,1.993Z" transform="translate(-4.32 -0.72)"/></svg>