<svg xmlns="http://www.w3.org/2000/svg" width="107.318" height="100.611" viewBox="0 0 107.318 100.611"><defs><style>.a{fill:#9bc757;}</style></defs><path class="a" d="M42.815,94.406A10.061,10.061,0,1,1,32.754,84.345,10.061,10.061,0,0,1,42.815,94.406Zm67.074,0A10.061,10.061,0,1,1,99.828,84.345,10.061,10.061,0,0,1,109.889,94.406Zm0-43.6V10.563H29.4a6.707,6.707,0,0,0-6.707-6.707H2.571v6.707H15.985l5.038,43.185A13.412,13.412,0,0,0,29.4,77.637h80.489V70.93H29.4a6.707,6.707,0,0,1-6.707-6.707c0-.023,0-.046,0-.069Z" transform="translate(-2.571 -3.856)"/></svg>