<svg xmlns="http://www.w3.org/2000/svg" width="33.016" height="33.016" viewBox="0 0 33.016 33.016">
    <path fill="#2196f3" d="M37.016 20.508A16.508 16.508 0 1 1 20.508 4a16.51 16.51 0 0 1 16.508 16.508z" transform="translate(-4 -4)"/>
    <path fill="#fff" d="M28.13 21.747l-2.047 1.189-5.591-9.621a.807.807 0 0 1 .293-1.1l.655-.381a.8.8 0 0 1 1.1.293zm-1.819 1.586l2.047-1.189 1.187 2.038-2.045 1.189zM13.4 25.284l4.943-8.457 2.109 1.232-4.942 8.456zm-1.283 4.311l1.019-3.86 2.109 1.235-2.863 2.779a.155.155 0 0 1-.19.026.158.158 0 0 1-.074-.18m6.4-13.064l.712-1.213a.8.8 0 0 1 1.1-.291l.716.419a.806.806 0 0 1 .287 1.1l-.709 1.216zm10.72 8.28c-.332.19-.829.484-1.122.658-.548.326-.125 1.287 0 1.493.709 1.189 1.441 1.022 1.993 1.864a2.7 2.7 0 0 1 .313.819c.039.054.158.11.2.045a4.086 4.086 0 0 0-.017-4.1c-.286-.423-.809-1.094-1.37-.774m2.983-1.789h-2.941l-1.284-2.357h4.224v2.35zm-6.62 0h-7.67l1.309-2.357h5.052zm-11.285 0h-2.985v-2.363h4.382z" transform="translate(-5.279 -5.348)"/>
</svg>
