<svg xmlns="http://www.w3.org/2000/svg" width="15.432" height="14.776" viewBox="0 0 15.432 14.776"><defs><style>.a{fill:none;stroke:#fff;stroke-linecap:round;stroke-linejoin:round;}</style></defs><g transform="translate(-1 -1)"><path class="a" d="M13.312,30.656A.656.656,0,1,1,12.656,30,.656.656,0,0,1,13.312,30.656Z" transform="translate(-5.908 -16.036)"/><path class="a" d="M29.812,30.656A.656.656,0,1,1,29.156,30,.656.656,0,0,1,29.812,30.656Z" transform="translate(-15.192 -16.036)"/><path class="a" d="M1.5,1.5H4.124l1.758,8.784A1.312,1.312,0,0,0,7.194,11.34H13.57a1.312,1.312,0,0,0,1.312-1.056l1.05-5.5H4.78"/></g></svg>