<svg xmlns="http://www.w3.org/2000/svg" width="10.679" height="10.679" viewBox="0 0 10.679 10.679"><defs><style>.a{fill:#2196f3;}.b{fill:#fff;}</style></defs><path class="a" d="M14.679,9.339A5.339,5.339,0,1,1,9.339,4,5.34,5.34,0,0,1,14.679,9.339Z" transform="translate(-4 -4)"/><path class="b" d="M16.762,14.965l-.662.385-1.808-3.112a.261.261,0,0,1,.095-.357l.212-.123a.26.26,0,0,1,.356.095Zm-.588.513.662-.385.384.659-.662.385ZM12,16.109l1.6-2.735.682.4-1.6,2.735ZM11.583,17.5l.329-1.248.682.4-.926.9a.05.05,0,0,1-.061.008.051.051,0,0,1-.024-.058m2.069-4.226.23-.392a.26.26,0,0,1,.357-.094l.231.136a.261.261,0,0,1,.093.357l-.229.393Zm3.467,2.678c-.107.061-.268.156-.363.213-.177.105-.041.416,0,.483.229.385.466.331.644.6a.875.875,0,0,1,.1.265c.013.018.051.036.066.015a1.321,1.321,0,0,0-.005-1.328c-.093-.137-.262-.354-.443-.25m.965-.579h-.951l-.415-.762h1.366v.762Zm-2.141,0H13.463l.423-.762H15.52Zm-3.65,0h-.966v-.762h1.417Z" transform="translate(-9.372 -9.661)"/></svg>