<svg xmlns="http://www.w3.org/2000/svg" width="8.255" height="9.425" viewBox="0 0 8.255 9.425"><defs><style>.a{fill:#4db6ac;}.b{fill:#dce775;}.c{fill:#d32f2f;}.d{fill:#fbc02d;}</style></defs><path class="a" d="M7.166,4.043A.235.235,0,0,0,7,4.3v8.95a.2.2,0,0,0,.118.2l4.757-4.729Z" transform="translate(-7 -4.035)"/><path class="b" d="M13.723,7.391,11.765,6.26l-3.8-2.2A.343.343,0,0,0,7.7,4.016l4.709,4.676Z" transform="translate(-7.539 -4.008)"/><path class="c" d="M7.716,28.578l5.861-3.384-1.32-1.311L7.5,28.612A.257.257,0,0,0,7.716,28.578Z" transform="translate(-7.382 -19.198)"/><path class="d" d="M30.914,19.47c-.188-.1-1.909-1.1-1.909-1.1l-.014-.008-1.31,1.3L29,20.973l1.9-1.1C31.123,19.748,31.1,19.572,30.914,19.47Z" transform="translate(-22.806 -14.977)"/></svg>