<svg xmlns="http://www.w3.org/2000/svg" width="40.586" height="33.172" viewBox="0 0 40.586 33.172">
  <path id="icons8-twitter" d="M40.587,10.287a16.308,16.308,0,0,1-4.666,1.28,8.152,8.152,0,0,0,3.573-4.493,16.294,16.294,0,0,1-5.159,1.969A8.126,8.126,0,0,0,20.5,16.45,23.066,23.066,0,0,1,3.756,7.963,8.136,8.136,0,0,0,6.27,18.808a8.079,8.079,0,0,1-3.678-1.017v.1A8.129,8.129,0,0,0,9.1,25.859,8.11,8.11,0,0,1,5.436,26a8.139,8.139,0,0,0,7.588,5.641A16.286,16.286,0,0,1,2.937,35.113,16.111,16.111,0,0,1,1,35,22.977,22.977,0,0,0,13.45,38.65c14.939,0,23.111-12.377,23.111-23.106,0-.354-.009-.706-.024-1.052A16.505,16.505,0,0,0,40.587,10.287Z" transform="translate(-0.501 -5.978)" fill="#1f3251" stroke="#2f4364" stroke-linecap="round" stroke-linejoin="round" stroke-miterlimit="10" stroke-width="1"/>
</svg>
