<svg xmlns="http://www.w3.org/2000/svg" width="13.03" height="13.03" viewBox="0 0 13.03 13.03"><defs><style>.a{fill:#9bc757;}</style></defs><path class="a" d="M8.515,2a6.515,6.515,0,0,0-5.676,9.713L2.01,14.671a.283.283,0,0,0,.273.36.292.292,0,0,0,.068-.008l3.087-.765A6.515,6.515,0,1,0,8.515,2Zm3.277,8.814a1.722,1.722,0,0,1-1.129.785,2.325,2.325,0,0,1-1.054-.065,9.8,9.8,0,0,1-.953-.348A7.424,7.424,0,0,1,5.8,8.692a3.192,3.192,0,0,1-.683-1.708A1.843,1.843,0,0,1,5.7,5.606.618.618,0,0,1,6.148,5.4c.112,0,.223,0,.321.006s.241-.039.376.284.474,1.144.515,1.227a.3.3,0,0,1,.014.29,1.113,1.113,0,0,1-.167.276c-.084.1-.176.215-.251.29s-.171.172-.073.337a4.977,4.977,0,0,0,.931,1.144,4.586,4.586,0,0,0,1.345.82c.167.083.265.069.362-.041s.418-.482.529-.648.223-.138.376-.083.976.454,1.143.537.279.124.321.193A1.362,1.362,0,0,1,11.793,10.814Z" transform="translate(-2 -2)"/></svg>