<svg xmlns="http://www.w3.org/2000/svg" width="25.523" height="29.141" viewBox="0 0 25.523 29.141">
    <g>
        <path fill="#4db6ac" d="M7.514 4.043A.725.725 0 0 0 7 4.829V32.5a.608.608 0 0 0 .364.624L22.071 18.5z" transform="translate(-7 -4.017)"/>
        <path fill="#dce775" d="M26.312 14.467l-6.054-3.5L8.495 4.18a1.059 1.059 0 0 0-.79-.146l14.558 14.458z" transform="translate(-7.191 -4.008)"/>
        <path fill="#d32f2f" d="M8.168 38.4l18.121-10.464-4.082-4.053L7.5 38.5a.794.794 0 0 0 .668-.1z" transform="translate(-7.136 -9.399)"/>
        <path fill="#fbc02d" d="M37.677 21.793c-.58-.313-5.9-3.408-5.9-3.408l-.044-.026-4.049 4.025 4.082 4.053 5.873-3.391c.685-.395.618-.94.038-1.253z" transform="translate(-12.61 -7.901)"/>
    </g>
</svg>
