<svg xmlns="http://www.w3.org/2000/svg" width="35.639" height="35.639" viewBox="0 0 35.639 35.639">
  <g id="icons8-instagram" transform="translate(0.5 0.5)">
    <path id="Path_29" data-name="Path 29" d="M13.9,38.639H28.742a9.9,9.9,0,0,0,9.9-9.9V13.9a9.9,9.9,0,0,0-9.9-9.9H13.9A9.9,9.9,0,0,0,4,13.9V28.742A9.9,9.9,0,0,0,13.9,38.639Z" transform="translate(-4 -4)" fill="#1f3251" stroke="#2f4364" stroke-miterlimit="10" stroke-width="1"/>
    <path id="Path_30" data-name="Path 30" d="M23.247,15a8.247,8.247,0,1,0,8.247,8.247A8.247,8.247,0,0,0,23.247,15Z" transform="translate(-5.928 -5.928)" fill="none" stroke="#fcfcfc" stroke-miterlimit="10" stroke-width="1"/>
    <path id="Path_31" data-name="Path 31" d="M36.649,11A1.649,1.649,0,1,0,38.3,12.649,1.649,1.649,0,0,0,36.649,11Z" transform="translate(-9.433 -5.227)" fill="#2f4364" stroke="#fcfcfc" stroke-width="1"/>
  </g>
</svg>
