<svg xmlns="http://www.w3.org/2000/svg" width="17.612" height="12.658" viewBox="0 0 17.612 12.658"><defs><style>.a{fill:#fff;}</style></defs><g transform="translate(0 -72.008)"><g transform="translate(0 72.008)"><g transform="translate(0 0)"><path class="a" d="M393.1,352.008a1.1,1.1,0,1,0,1.1,1.1A1.1,1.1,0,0,0,393.1,352.008Zm0,1.651a.55.55,0,1,1,.55-.55A.55.55,0,0,1,393.1,353.659Z" transform="translate(-378.516 -342.376)"/><path class="a" d="M57.1,352.008a1.1,1.1,0,1,0,1.1,1.1A1.1,1.1,0,0,0,57.1,352.008Zm0,1.651a.55.55,0,1,1,.55-.55A.55.55,0,0,1,57.1,353.659Z" transform="translate(-54.074 -342.376)"/><path class="a" d="M17.337,78.613h-.275V72.283a.275.275,0,0,0-.275-.275h-6.6a.275.275,0,0,0-.275.275v2.752H6.6a.275.275,0,0,0-.275.275v3.3H6.054V75.585a.275.275,0,0,0-.275-.275H2.752a.275.275,0,0,0-.254.169L1.183,78.632A1.374,1.374,0,0,0,0,79.989V82.74a.275.275,0,0,0,.275.275h.848a1.924,1.924,0,0,0,3.809,0h7.749a1.924,1.924,0,0,0,3.809,0h.848a.275.275,0,0,0,.275-.275V78.888A.275.275,0,0,0,17.337,78.613Zm-14.31,5.5A1.376,1.376,0,1,1,4.4,82.74,1.376,1.376,0,0,1,3.027,84.116ZM5.5,82.465H4.931a1.924,1.924,0,0,0-3.809,0H.55V79.989a.826.826,0,0,1,.826-.826H5.5Zm0-3.853H1.789l1.147-2.752H5.5Zm7.155-6.054H14.31v3.027l-.66-.5a.275.275,0,0,0-.33,0l-.66.5V72.558Zm-2.2,0h1.651v3.577a.275.275,0,0,0,.44.22l.936-.7.936.7a.275.275,0,0,0,.44-.22V72.558h1.651v6.054H10.457ZM6.88,75.585H9.907v3.027H6.88Zm7.705,8.531a1.376,1.376,0,1,1,1.376-1.376A1.376,1.376,0,0,1,14.585,84.116Zm2.477-1.651h-.572a1.924,1.924,0,0,0-3.809,0H6.054v-3.3H17.062Z" transform="translate(0 -72.008)"/><path class="a" d="M68.167,194.188a.275.275,0,0,0,.106.021h2.339a.275.275,0,0,0,.275-.275v-1.651a.275.275,0,0,0-.275-.275H68.961a.275.275,0,0,0-.254.169l-.688,1.651A.275.275,0,0,0,68.167,194.188Zm.978-1.63h1.192v1.1H68.685Z" transform="translate(-65.658 -187.88)"/><path class="a" d="M210.2,192.008h-1.926a.275.275,0,0,0-.275.275v1.1a.275.275,0,0,0,.275.275H210.2a.275.275,0,0,0,.275-.275v-1.1A.275.275,0,0,0,210.2,192.008Zm-.275,1.1H208.55v-.55h1.376Z" transform="translate(-200.845 -187.88)"/></g></g></g></svg>