<svg xmlns="http://www.w3.org/2000/svg" width="17.612" height="12.658" viewBox="0 0 17.612 12.658"><defs><style>.a{fill:#fff;}</style></defs><g transform="translate(0 0)"><g transform="translate(0 0)"><path class="a" d="M393.1,352.008a1.1,1.1,0,1,1-1.1,1.1A1.1,1.1,0,0,1,393.1,352.008Zm0,1.651a.55.55,0,1,0-.55-.55A.55.55,0,0,0,393.1,353.659Z" transform="translate(-390.074 -342.376)"/><path class="a" d="M57.1,352.008a1.1,1.1,0,1,1-1.1,1.1A1.1,1.1,0,0,1,57.1,352.008Zm0,1.651a.55.55,0,1,0-.55-.55A.55.55,0,0,0,57.1,353.659Z" transform="translate(-42.516 -342.376)"/><path class="a" d="M.275,78.613H.55V72.283a.275.275,0,0,1,.275-.275h6.6a.275.275,0,0,1,.275.275v2.752h3.3a.275.275,0,0,1,.275.275v3.3h.275V75.585a.275.275,0,0,1,.275-.275H14.86a.275.275,0,0,1,.254.169l1.315,3.152a1.374,1.374,0,0,1,1.183,1.357V82.74a.275.275,0,0,1-.275.275h-.848a1.924,1.924,0,0,1-3.809,0H4.931a1.924,1.924,0,0,1-3.809,0H.275A.275.275,0,0,1,0,82.74V78.888A.275.275,0,0,1,.275,78.613Zm14.31,5.5a1.376,1.376,0,1,0-1.376-1.376A1.376,1.376,0,0,0,14.585,84.116Zm-2.477-1.651h.572a1.924,1.924,0,0,1,3.809,0h.572V79.989a.826.826,0,0,0-.826-.826H12.108Zm0-3.853h3.715l-1.147-2.752H12.108ZM4.953,72.558H3.3v3.027l.66-.5a.275.275,0,0,1,.33,0l.66.5V72.558Zm2.2,0H5.5v3.577a.275.275,0,0,1-.44.22l-.936-.7-.936.7a.275.275,0,0,1-.44-.22V72.558H1.1v6.054H7.155Zm3.577,3.027H7.705v3.027h3.027ZM3.027,84.116A1.376,1.376,0,1,0,1.651,82.74,1.376,1.376,0,0,0,3.027,84.116ZM.55,82.465h.572a1.924,1.924,0,0,1,3.809,0h6.627v-3.3H.55Z" transform="translate(0 -72.008)"/><path class="a" d="M70.718,194.188a.275.275,0,0,1-.106.021H68.273a.275.275,0,0,1-.275-.275v-1.651a.275.275,0,0,1,.275-.275h1.651a.275.275,0,0,1,.254.169l.688,1.651A.275.275,0,0,1,70.718,194.188Zm-.978-1.63H68.548v1.1H70.2Z" transform="translate(-55.614 -187.88)"/><path class="a" d="M208.275,192.008H210.2a.275.275,0,0,1,.275.275v1.1a.275.275,0,0,1-.275.275h-1.926a.275.275,0,0,1-.275-.275v-1.1A.275.275,0,0,1,208.275,192.008Zm.275,1.1h1.376v-.55H208.55Z" transform="translate(-200.019 -187.88)"/></g></g></svg>