<svg xmlns="http://www.w3.org/2000/svg" width="14.948" height="12.14" viewBox="0 0 14.948 12.14"><defs><style>.a{fill:#fff;}</style></defs><g transform="translate(0 -48.096)"><g transform="translate(0 48.096)"><g transform="translate(0 0)"><path class="a" d="M14.261,59.8h-.249V53.3a2.032,2.032,0,0,0,.936-1.71.219.219,0,0,0-.029-.109l-1.738-3.041a.689.689,0,0,0-.6-.346H2.363a.689.689,0,0,0-.6.346L.029,51.483A.219.219,0,0,0,0,51.592,2.032,2.032,0,0,0,.936,53.3v6.5H.687a.219.219,0,0,0,0,.438H14.261a.219.219,0,0,0,0-.438ZM.453,51.81h.7a.219.219,0,0,0,0-.438H.6l1.55-2.713a.25.25,0,0,1,.216-.126H12.585a.25.25,0,0,1,.216.126l1.55,2.713h-.559a.219.219,0,0,0,0,.438h.7a1.595,1.595,0,0,1-3.159,0h1.521a.219.219,0,0,0,0-.438H2.091a.219.219,0,0,0,0,.438H3.612a1.595,1.595,0,0,1-3.159,0Zm10.414,0a1.594,1.594,0,0,1-3.159,0Zm-3.628,0a1.594,1.594,0,0,1-3.159,0ZM12.4,59.8H10.034v-.732H12.4Zm0-1.17H10.034V54.619H12.4Zm1.17,1.17h-.732V54.4a.219.219,0,0,0-.219-.219H9.815A.219.219,0,0,0,9.6,54.4v5.4H1.374V53.514a2.031,2.031,0,0,0,2.472-1.005,2.032,2.032,0,0,0,3.628,0,2.032,2.032,0,0,0,3.628,0,2.031,2.031,0,0,0,2.472,1.005Z" transform="translate(0 -48.096)"/></g></g><g transform="translate(2.106 54.181)"><path class="a" d="M78.683,256.516H72.364a.219.219,0,0,0-.219.219v4.447a.219.219,0,0,0,.219.219h6.319a.219.219,0,0,0,.219-.219v-4.447A.219.219,0,0,0,78.683,256.516Zm-.219,4.447H72.583v-4.009h5.881Z" transform="translate(-72.145 -256.516)"/></g></g></svg>