<svg xmlns="http://www.w3.org/2000/svg" width="10.646" height="12.967" viewBox="0 0 10.646 12.967"><defs><style>.a{fill:#fff;}</style></defs><g transform="translate(-45.825)"><g transform="translate(45.825 0)"><path class="a" d="M370.669,368.324l-.825-1.6a.256.256,0,0,0-.227-.139h0a.256.256,0,0,0-.227.138c-.569,1.1-.862,1.667-.872,1.689a1.209,1.209,0,1,0,2.308.5,1.275,1.275,0,0,0-.155-.592Zm-1.053,1.29a.7.7,0,0,1-.7-.7.69.69,0,0,1,.062-.287c.027-.054.341-.662.635-1.23l.6,1.157a.775.775,0,0,1,.1.359A.7.7,0,0,1,369.616,369.615Z" transform="translate(-360.237 -357.304)"/><path class="a" d="M54.394,8.7,55.9,8.035a.958.958,0,0,0,.478-1.285l-.321-.679a.256.256,0,0,0-.334-.125l-.286.126-.442-.884a3.191,3.191,0,0,0-4.159-1.452l-1.571.721V2.794l.258-.989a.263.263,0,0,1,.246-.169h2.9c1.033,0,1.662-1.213,1.688-1.264A.256.256,0,0,0,54.13,0H47.961c-.129,0-.261.006-.393.018a1,1,0,0,0-.91,1V2.76h0V6.143a.256.256,0,1,0,.512,0V3.016h1.582V4.855a.256.256,0,0,0,.363.233L51.05,4.2a2.674,2.674,0,0,1,3.486,1.216l.431.861L53.552,6.9l-.467-.841a1.145,1.145,0,0,0-1.5-.473L48.9,6.894a.256.256,0,0,0-.144.23v4.151H47.17V8.394a.256.256,0,0,0-.512,0v2.882a.855.855,0,0,0-.833.853v.582a.256.256,0,0,0,.256.256h3.81a.256.256,0,0,0,.256-.256v-.582a.855.855,0,0,0-.854-.854h-.029V7.284l2.541-1.24a.633.633,0,0,1,.831.261l.444.8-.137.06a.256.256,0,0,0-.131.339l.318.713a.958.958,0,0,0,1.263.486ZM47.17,1.022a.491.491,0,0,1,.445-.493c.117-.011.233-.016.346-.016h5.693a1.378,1.378,0,0,1-.984.612h-2.9a.775.775,0,0,0-.732.521l-.006.019-.219.84H47.17Zm2.465,11.107v.326h-3.3v-.326a.342.342,0,0,1,.342-.342h2.614A.342.342,0,0,1,49.635,12.129ZM53.6,8.008l-.213-.478L55.7,6.515l.215.454a.446.446,0,0,1-.222.6l-1.506.667A.446.446,0,0,1,53.6,8.008Z" transform="translate(-45.825 0)"/><path class="a" d="M78.752,276.465a.256.256,0,1,0,.1-.317A.258.258,0,0,0,78.752,276.465Z" transform="translate(-77.899 -269.119)"/></g></g></svg>