<svg xmlns="http://www.w3.org/2000/svg" width="13.619" height="13.619" viewBox="0 0 13.619 13.619"><defs><style>.a{fill:#fff;}</style></defs><g transform="translate(-0.5 0.001)"><path class="a" d="M337.606,155.148a.266.266,0,1,0,.266.266A.266.266,0,0,0,337.606,155.148Zm0,0" transform="translate(-327.88 -151.022)"/><path class="a" d="M155.911,336.84a.266.266,0,1,0,.266.266A.266.266,0,0,0,155.911,336.84Zm0,0" transform="translate(-151.018 -327.881)"/><path class="a" d="M13.788,1.635a.266.266,0,0,0-.249.072l-1.1,1.111h-.529l-.582-.6V1.68l1.087-1.1a.266.266,0,0,0-.1-.439,2.662,2.662,0,0,0-3.419,3.21L6.93,5.308,3.665,2.036V1.394a.266.266,0,0,0-.129-.228L1.655.037a.266.266,0,0,0-.325.04L.578.829a.266.266,0,0,0-.04.325L1.667,3.035a.266.266,0,0,0,.228.129h.642L5.8,6.436,3.849,8.388a2.662,2.662,0,0,0-3.21,3.419.266.266,0,0,0,.441.1l1.1-1.111h.532l.606.606v.532l-1.111,1.1a.266.266,0,0,0,.1.441,2.661,2.661,0,0,0,3.008-.969,2.63,2.63,0,0,0,.411-2.241L7.3,8.7l.359.39-.165.165a.266.266,0,1,0,.376.376l.149-.149,3.369,3.66.008.008a1.6,1.6,0,0,0,2.257-2.257l-.008-.008L9.978,7.523l.148-.148A.266.266,0,1,0,9.749,7l-.164.164L9.194,6.8,10.77,5.229A2.661,2.661,0,0,0,13.98,1.81.266.266,0,0,0,13.788,1.635ZM2.835,2.71a.263.263,0,0,0-.188-.075h-.6L1.1,1.059,1.56.6l1.574.944v.6a.266.266,0,0,0,.078.188l3.342,3.35-.376.376ZM9.6,7.9l3.678,3.374a1.064,1.064,0,0,1-1.505,1.5L8.394,9.106Zm-.392-.36L8.033,8.715l-.359-.39L8.818,7.18Zm2.25-2.752a2.126,2.126,0,0,1-.68-.111.266.266,0,0,0-.273.064L5.241,10.005a.266.266,0,0,0-.064.273A2.13,2.13,0,0,1,3.16,13.086a2.179,2.179,0,0,1-.232-.012l.845-.838a.266.266,0,0,0,.079-.189v-.752a.266.266,0,0,0-.078-.188l-.762-.762a.266.266,0,0,0-.188-.078H2.071a.266.266,0,0,0-.189.079l-.838.845a2.152,2.152,0,0,1-.012-.232A2.13,2.13,0,0,1,3.84,8.941a.266.266,0,0,0,.273-.064L9.378,3.612a.266.266,0,0,0,.064-.273A2.13,2.13,0,0,1,11.459.531,2.174,2.174,0,0,1,11.7.544l-.827.84a.266.266,0,0,0-.076.187v.752a.266.266,0,0,0,.075.185l.735.762a.266.266,0,0,0,.191.081h.752a.266.266,0,0,0,.189-.079l.838-.845a2.152,2.152,0,0,1,.012.232A2.13,2.13,0,0,1,11.459,4.787Zm0,0" transform="translate(0 0)"/><path class="a" d="M187.331,183.5,184,186.832a.266.266,0,1,0,.376.376l3.329-3.329a.266.266,0,0,0-.376-.376Zm0,0" transform="translate(-178.546 -178.548)"/><path class="a" d="M347.755,347.916a.266.266,0,0,0,.376-.377l-2.4-2.39a.266.266,0,0,0-.376.377Zm0,0" transform="translate(-335.608 -335.894)"/></g></svg>