<svg xmlns="http://www.w3.org/2000/svg" width="64.053" height="54.9" viewBox="0 0 64.053 54.9">
  <path id="Icon_material-airline-seat-legroom-extra" data-name="Icon material-airline-seat-legroom-extra" d="M9.1,31.95V4.5H3V31.95A15.256,15.256,0,0,0,18.25,47.2h18.3V41.1H18.25A9.138,9.138,0,0,1,9.1,31.95ZM66.532,47.932a4.744,4.744,0,0,0-6.192-1.922l-3.325,1.525-10.4-21.289a6.129,6.129,0,0,0-5.46-3.416L30.45,22.8V4.5H12.15V28.9a9.138,9.138,0,0,0,9.15,9.15H42.65l10.4,21.35L64.4,54.215a4.6,4.6,0,0,0,2.135-6.283Z" transform="translate(-3 -4.5)" fill="#9bc757"/>
</svg>
