<svg xmlns="http://www.w3.org/2000/svg" width="49.35" height="56.4" viewBox="0 0 49.35 56.4">
  <g id="Group_100" data-name="Group 100" transform="translate(-887 -1262)">
    <path id="Icon_awesome-lock" data-name="Icon awesome-lock" d="M44.063,24.675H41.419V16.744a16.744,16.744,0,0,0-33.488,0v7.931H5.288A5.289,5.289,0,0,0,0,29.963v21.15A5.289,5.289,0,0,0,5.288,56.4H44.063a5.289,5.289,0,0,0,5.288-5.288V29.963A5.289,5.289,0,0,0,44.063,24.675Zm-11.456,0H16.744V16.744a7.931,7.931,0,1,1,15.863,0Z" transform="translate(887 1262)" fill="#9bc757"/>
    <circle id="Ellipse_35" data-name="Ellipse 35" cx="6.5" cy="6.5" r="6.5" transform="translate(905 1297)" fill="#fff"/>
  </g>
</svg>
