<svg xmlns="http://www.w3.org/2000/svg" width="14.61" height="15" viewBox="0 0 14.61 15"><defs><style>.a{fill:#fff;}</style></defs><g transform="translate(-36.412 -33.379)"><path class="a" d="M50,40.924l-1.315-1.315.043-.182L50.164,39a.257.257,0,0,0,0-.493l-1.438-.426-.314-1.317a.257.257,0,0,0-.5,0L47.6,38.083l-.341.1L45.2,36.129a2.011,2.011,0,0,0-2.844,0l-4.8,4.8a2.014,2.014,0,0,0,0,2.844l.24.24-.282,1a8.291,8.291,0,0,1-1.064,2.136.257.257,0,0,0,.031.326l2.852,2.852a.257.257,0,0,0,.322.034l1.533-.992a11.77,11.77,0,0,0,1.131-.836l.033.033a2.011,2.011,0,0,0,2.844,0l4.8-4.8A2.014,2.014,0,0,0,50,40.924Zm-2.111-2.391a.257.257,0,0,0,.177-.187l.1-.41.1.41a.257.257,0,0,0,.177.187l.747.221-.747.221a.257.257,0,0,0-.177.187l-.1.41-.1-.41a.257.257,0,0,0-.177-.187l-.747-.221Zm-6.973,10.4-1.358.879L37,47.258a7.692,7.692,0,0,0,1.021-2.129l1.1-3.893a.442.442,0,0,1,.875.118l-.511,2.216a.257.257,0,0,0,.433.24l3.693-3.693a.388.388,0,0,1,.537,0,.38.38,0,0,1,0,.537h0l-2.717,2.717a.257.257,0,1,0,.364.364l3.468-3.468a.38.38,0,0,1,.537.537l-.906.906h0l-2.561,2.561a.257.257,0,1,0,.364.364l2.561-2.561a.388.388,0,0,1,.549.549l-.739.739L43.1,45.323a.257.257,0,1,0,.364.364l.138-.138h0l1.823-1.823a.38.38,0,0,1,.525,0,.371.371,0,0,1,0,.525l-3.2,3.2a11.283,11.283,0,0,1-1.842,1.489Zm8.72-5.531-4.8,4.8a1.5,1.5,0,0,1-2.117,0l-.006-.006c.137-.125.273-.252.4-.383l3.2-3.2a.885.885,0,0,0,0-1.252.842.842,0,0,0-.326-.2l.176-.176a.9.9,0,0,0,0-1.277.893.893,0,0,0-.339-.21l.333-.333A.894.894,0,1,0,44.895,39.9l-.18.18a.883.883,0,0,0-.206-.33.915.915,0,0,0-1.264,0l-3.059,3.059.314-1.359a.291.291,0,0,0,.005-.029.956.956,0,0,0-1.886-.306l-.654,2.323-.036-.036a1.5,1.5,0,0,1,0-2.117l4.8-4.8a1.5,1.5,0,0,1,2.117,0L46.7,38.35l-.536.158a.257.257,0,0,0,0,.493l1.439.426.313,1.317a.257.257,0,0,0,.5,0l.13-.547,1.092,1.092a1.5,1.5,0,0,1,0,2.117Z" transform="translate(0 -2.022)"/><path class="a" d="M55.24,34.408a.257.257,0,0,0,.257-.257v-.514a.257.257,0,1,0-.514,0v.514A.257.257,0,0,0,55.24,34.408Z" transform="translate(-17.376)"/><path class="a" d="M55.24,57.379a.257.257,0,0,0-.257.257v.514a.257.257,0,1,0,.514,0v-.514A.257.257,0,0,0,55.24,57.379Z" transform="translate(-17.376 -22.457)"/><path class="a" d="M39.24,49.893h.514a.257.257,0,1,0,0-.514H39.24a.257.257,0,0,0,0,.514Z" transform="translate(-2.405 -14.971)"/><path class="a" d="M63.24,49.893h.514a.257.257,0,1,0,0-.514H63.24a.257.257,0,0,0,0,.514Z" transform="translate(-24.862 -14.971)"/><path class="a" d="M215.883,229.379a.9.9,0,1,0,.9.9A.9.9,0,0,0,215.883,229.379Zm0,1.286a.386.386,0,1,1,.386-.386A.386.386,0,0,1,215.883,230.665Z" transform="translate(-167.087 -183.395)"/><path class="a" d="M255.31,203.494a.275.275,0,1,0,.275.275A.275.275,0,0,0,255.31,203.494Z" transform="translate(-204.563 -159.175)"/></g></svg>