<svg xmlns="http://www.w3.org/2000/svg" width="15.704" height="10.112" viewBox="0 0 15.704 10.112"><defs><style>.a{fill:#fff;}</style></defs><g transform="translate(0 -91.238)"><g transform="translate(0 91.238)"><path class="a" d="M0,0H.46V.449H0Z" transform="translate(0.112 3.254) rotate(-3.037)"/><path class="a" d="M248.741,406.579h.46v.449h-.46Z" transform="translate(-241.119 -396.916)"/><path class="a" d="M248.741,377.247h.46v.449h-.46Z" transform="translate(-241.119 -368.483)"/><path class="a" d="M248.741,347.915h.46v.449h-.46Z" transform="translate(-241.119 -340.05)"/><path class="a" d="M192.569,377.247h.46v.449h-.46Z" transform="translate(-186.668 -368.483)"/><path class="a" d="M192.569,406.579h.46v.449h-.46Z" transform="translate(-186.668 -396.916)"/><path class="a" d="M192.569,347.915h.46v.449h-.46Z" transform="translate(-186.668 -340.05)"/><path class="a" d="M136.4,377.247h.46v.449h-.46Z" transform="translate(-132.218 -368.483)"/><path class="a" d="M136.4,347.915h.46v.449h-.46Z" transform="translate(-132.218 -340.05)"/><path class="a" d="M136.4,406.579h.46v.449h-.46Z" transform="translate(-132.218 -396.916)"/><path class="a" d="M80.226,406.579h.46v.449h-.46Z" transform="translate(-77.768 -396.916)"/><path class="a" d="M80.226,347.915h.46v.449h-.46Z" transform="translate(-77.768 -340.05)"/><path class="a" d="M80.226,377.247h.46v.449h-.46Z" transform="translate(-77.768 -368.483)"/><path class="a" d="M304.913,377.247h.46v.449h-.46Z" transform="translate(-295.57 -368.483)"/><path class="a" d="M304.913,347.915h.46v.449h-.46Z" transform="translate(-295.57 -340.05)"/><path class="a" d="M304.913,406.579h.46v.449h-.46Z" transform="translate(-295.57 -396.916)"/><path class="a" d="M361.085,377.247h.46v.449h-.46Z" transform="translate(-350.021 -368.483)"/><path class="a" d="M361.085,347.915h.46v.449h-.46Z" transform="translate(-350.021 -340.05)"/><path class="a" d="M361.085,406.579h.46v.449h-.46Z" transform="translate(-350.021 -396.916)"/><path class="a" d="M417.257,347.915h.46v.449h-.46Z" transform="translate(-404.471 -340.05)"/><path class="a" d="M417.257,406.579h.46v.449h-.46Z" transform="translate(-404.471 -396.916)"/><path class="a" d="M417.257,377.247h.46v.449h-.46Z" transform="translate(-404.471 -368.483)"/><path class="a" d="M201.276,184.377h3.368v.46h-3.368Z" transform="translate(-195.108 -181.523)"/><path class="a" d="M15.388,91.6a1.138,1.138,0,0,0-.834-.358H1.149A1.149,1.149,0,0,0,0,92.447l.084,1.593.459-.024L.461,92.423a.689.689,0,0,1,.689-.726H14.555a.689.689,0,0,1,.689.726l-.233,4.425a.23.23,0,0,1-.23.218h-.476V95.221H1.4v1.844H.923a.23.23,0,0,1-.23-.218L.616,95.363l-.459.024.078,1.485a.689.689,0,0,0,.507.628l.135.439a.686.686,0,0,0,.659.487H14.168a.686.686,0,0,0,.659-.487l.135-.439a.689.689,0,0,0,.507-.628l.233-4.425a1.138,1.138,0,0,0-.314-.851ZM1.859,95.681H13.845v1.385H1.859ZM14.388,97.8a.229.229,0,0,1-.22.162H1.536a.229.229,0,0,1-.22-.162l-.086-.279H14.474Z" transform="translate(0 -91.238)"/><g transform="translate(1.481 1)"><path class="a" d="M106.986,123.86h.449v.46h-.449Z" transform="translate(-105.188 -123.86)"/><path class="a" d="M77.654,123.86H78.1v.46h-.449Z" transform="translate(-76.755 -123.86)"/><path class="a" d="M48.322,123.86h.449v.46h-.449Z" transform="translate(-48.322 -123.86)"/></g></g></g></svg>